<svg xmlns="http://www.w3.org/2000/svg" viewBox="0 0 256 256" role="img" aria-label="W1N Project logo">
<title>W1N Project logo</title>
<style>
  .bracket { fill: #ffffff; }
  .accent { fill: #bdfa02; }
</style>
<circle cx="128" cy="128" r="128" fill="#0a0a0a" />
<g class="brackets">
  <path class="bracket" d="M 90.00 183.50 L 85.50 180.00 L 81.50 162.00 L 84.50 155.00 L 128.00 93.50 L 152.00 93.50 L 153.50 96.00 L 149.50 102.00 L 90.00 183.50 Z" />
  <path class="bracket" d="M 59.00 162.50 L 46.00 162.50 L 12.50 130.00 L 12.50 126.00 L 46.00 93.50 L 59.00 93.50 L 60.50 102.00 L 34.50 128.00 L 60.50 154.00 L 59.00 162.50 Z" />
  <path class="bracket" d="M 209.00 162.50 L 196.00 162.50 L 194.50 154.00 L 220.50 127.00 L 194.50 102.00 L 196.00 93.50 L 211.00 94.50 L 242.50 126.00 L 241.50 131.00 L 209.00 162.50 Z" />
  <path class="bracket" d="M 82.00 151.50 L 79.50 151.00 L 78.50 147.00 L 64.50 79.00 L 64.50 74.00 L 67.00 71.50 L 86.00 71.50 L 89.50 75.00 L 100.50 124.00 L 82.00 151.50 Z" />
  <path class="bracket" d="M 121.00 183.50 L 114.00 183.50 L 111.50 181.00 L 108.50 163.00 L 124.50 141.00 L 127.00 140.50 L 132.50 162.00 L 121.00 183.50 Z" />
</g>
<g class="accents">
  <path class="accent" d="M 149.00 183.50 L 128.00 183.50 L 126.50 180.00 L 165.50 91.00 L 150.50 89.00 L 171.00 71.50 L 195.00 71.50 L 195.50 78.00 L 149.00 183.50 Z" />
  <path class="accent" d="M 225.00 183.50 L 173.00 183.50 L 171.50 174.00 L 225.00 172.50 L 225.00 183.50 Z" />
</g>
</svg>
